# xmcd
#
# Track frame offsets: 
#        150
#        18874
#        38951
#        53838
#        65466
#        77536
#        93401
#        113381
#        124786
#        134461
#        149412
#        164016
#        180051
#        198128
#
# Disc length: 2880 seconds
#
# Revision: 0
# Processed by: cddbd v1.5.2PL0 Copyright (c) Steve Scherf et al.
# Submitted via: ExactAudioCopy v0.99pb3
#
DISCID=b00b3e0e
DTITLE=Georges Brassens - Bobino 1976 (1)
DYEAR=2006
DGENRE=Chanson
TTITLE0=Trompe la mort
TTITLE1=Les ricochets
TTITLE2=Tempête dans un bénitier
TTITLE3=Bonhomme
TTITLE4=Le boulevard du temps qui passe
TTITLE5=Le modeste
TTITLE6=Don Juan
TTITLE7=Hécatombe
TTITLE8=Il suffit de passer le pont
TTITLE9=Une jolie fleur
TTITLE10=Les patriotes
TTITLE11=Cupidon s'en fout
TTITLE12=La non-demande en mariage
TTITLE13=Le gorille
EXTD=
EXTT0=
EXTT1=
EXTT2=
EXTT3=
EXTT4=
EXTT5=
EXTT6=
EXTT7=
EXTT8=
EXTT9=
EXTT10=
EXTT11=
EXTT12=
EXTT13=
PLAYORDER=
